<svg width="740" height="604" viewBox="0 0 740 604" fill="none" xmlns="http://www.w3.org/2000/svg">
<g filter="url(#filter0_d_201_4835)">
<path fill-rule="evenodd" clip-rule="evenodd" d="M172.371 16.7277C133.809 16.7277 105.28 50.4818 106.555 87.0855C107.78 122.249 106.189 167.798 94.7217 204.936C83.2186 242.191 63.7705 265.787 32 268.813L32 303.023C63.7705 306.049 83.2186 329.646 94.7217 366.9C106.189 404.039 107.78 449.588 106.555 484.751C105.28 521.355 133.809 555.109 172.371 555.109H567.517C606.079 555.109 634.609 521.355 633.334 484.751C632.108 449.588 633.7 404.039 645.167 366.9C656.67 329.646 676.07 306.049 707.84 303.023V268.813C676.07 265.787 656.67 242.191 645.167 204.936C633.7 167.798 632.108 122.249 633.334 87.0855C634.609 50.4818 606.079 16.7277 567.517 16.7277L172.371 16.7277ZM508.434 364.703C508.434 424.184 464.072 460.248 390.456 460.248H253.615C252.51 460.248 251.615 459.352 251.615 458.248L251.615 124.328C251.615 123.223 252.51 122.328 253.615 122.328L389.736 122.328C451.123 122.328 491.409 155.581 491.409 206.632C491.409 242.461 464.312 274.544 429.782 280.164V282.038C476.781 287.19 508.434 319.74 508.434 364.703ZM376.787 165.182L305.329 165.182L305.329 266.113H365.517C412.037 266.113 437.695 247.379 437.695 213.892C437.695 182.512 415.634 165.182 376.787 165.182ZM305.329 306.158V417.393L379.425 417.393C427.863 417.393 453.521 397.956 453.521 361.424C453.521 324.892 427.144 306.158 376.308 306.158H305.329Z" fill="url(#paint0_linear_201_4835)"/>
</g>
<path d="M107.554 87.0507C106.297 50.9508 134.435 17.7277 172.371 17.7277L567.517 17.7277C605.453 17.7277 633.592 50.9508 632.334 87.0507C631.108 122.247 632.694 167.931 644.211 205.231C655.656 242.296 675.014 266.275 706.84 269.717L706.84 302.12C675.014 305.562 655.656 329.54 644.211 366.605C632.694 403.906 631.108 449.589 632.334 484.786C633.592 520.886 605.453 554.109 567.517 554.109L172.371 554.109C134.435 554.109 106.297 520.886 107.554 484.786C108.781 449.589 107.195 403.906 95.6772 366.605C84.2323 329.539 64.8257 305.562 33 302.12L33 269.717C64.8257 266.275 84.2323 242.297 95.6772 205.231C107.195 167.931 108.781 122.247 107.554 87.0507Z" stroke="white" stroke-width="2"/>
<defs>
<filter id="filter0_d_201_4835" x="0" y="0.727661" width="739.84" height="602.381" filterUnits="userSpaceOnUse" color-interpolation-filters="sRGB">
<feFlood flood-opacity="0" result="BackgroundImageFix"/>
<feColorMatrix in="SourceAlpha" type="matrix" values="0 0 0 0 0 0 0 0 0 0 0 0 0 0 0 0 0 0 127 0" result="hardAlpha"/>
<feOffset dy="16"/>
<feGaussianBlur stdDeviation="16"/>
<feColorMatrix type="matrix" values="0 0 0 0 0 0 0 0 0 0 0 0 0 0 0 0 0 0 0.2 0"/>
<feBlend mode="normal" in2="BackgroundImageFix" result="effect1_dropShadow_201_4835"/>
<feBlend mode="normal" in="SourceGraphic" in2="effect1_dropShadow_201_4835" result="shape"/>
</filter>
<linearGradient id="paint0_linear_201_4835" x1="95.9229" y1="52.1634" x2="275.697" y2="554.105" gradientUnits="userSpaceOnUse">
<stop stop-color="white"/>
<stop offset="1" stop-color="#F1E5FC"/>
</linearGradient>
</defs>
</svg>
