<svg width="308" height="310" viewBox="0 0 308 310" fill="none" xmlns="http://www.w3.org/2000/svg">
<path d="M152.258 0.00253253C139.63 0.0612069 127.571 1.13816 116.961 3.01573C85.7026 8.53799 80.0274 20.0965 80.0274 41.4125V69.5644H153.894V78.9483H80.0274H52.3059C30.8383 78.9483 12.0406 91.8516 6.16095 116.398C-0.621174 144.534 -0.921998 162.091 6.16095 191.47C11.4116 213.338 23.951 228.92 45.4186 228.92H70.8156V195.172C70.8156 170.791 91.9105 149.285 116.961 149.285H190.741C211.279 149.285 227.674 132.375 227.674 111.749V41.4125C227.674 21.3943 210.786 6.35669 190.741 3.01573C178.052 0.903461 164.886 -0.0561427 152.258 0.00253253ZM112.312 22.6446C119.942 22.6446 126.172 28.9772 126.172 36.7636C126.172 44.5224 119.942 50.7965 112.312 50.7965C104.654 50.7965 98.4509 44.5223 98.4509 36.7636C98.4509 28.9772 104.654 22.6446 112.312 22.6446Z" fill="url(#paint0_linear_1112_497)"/>
<path d="M236.886 78.9482V111.749C236.886 137.179 215.326 158.583 190.741 158.583H116.961C96.7509 158.583 80.0273 175.88 80.0273 196.119V266.455C80.0273 286.474 97.4346 298.248 116.961 303.991C140.343 310.866 162.765 312.109 190.741 303.991C209.337 298.607 227.674 287.771 227.674 266.455V238.303H153.894V228.919H227.674H264.607C286.075 228.919 294.075 213.945 301.54 191.47C309.252 168.331 308.924 146.08 301.54 116.398C296.235 95.0268 286.102 78.9482 264.607 78.9482H236.886ZM195.39 257.071C203.047 257.071 209.251 263.345 209.251 271.104C209.251 278.891 203.047 285.223 195.39 285.223C187.76 285.223 181.529 278.891 181.529 271.104C181.529 263.345 187.76 257.071 195.39 257.071Z" fill="url(#paint1_linear_1112_497)"/>
<defs>
<linearGradient id="paint0_linear_1112_497" x1="0.960937" y1="-7.99028e-07" x2="171.289" y2="145.143" gradientUnits="userSpaceOnUse">
<stop stop-color="#5A9FD4"/>
<stop offset="1" stop-color="#306998"/>
</linearGradient>
<linearGradient id="paint1_linear_1112_497" x1="193.615" y1="268.737" x2="132.508" y2="183.108" gradientUnits="userSpaceOnUse">
<stop stop-color="#FFD43B"/>
<stop offset="1" stop-color="#FFE873"/>
</linearGradient>
</defs>
</svg>
