<svg width="57" height="58" viewBox="0 0 57 58" fill="none" xmlns="http://www.w3.org/2000/svg">
<g filter="url(#filter0_i_102_35)">
<g clip-path="url(#clip0_102_35)">
<path d="M50.6015 0.624992H5.6921C2.68205 0.624992 0.241928 3.09842 0.241928 6.14955V51.6719C0.241928 54.723 2.68205 57.1964 5.6921 57.1964H50.6015C53.6116 57.1964 56.0517 54.723 56.0517 51.6719V6.14955C56.0517 3.09842 53.6116 0.624992 50.6015 0.624992Z" fill="#3178C6"/>
<g filter="url(#filter1_d_102_35)">
<path fill-rule="evenodd" clip-rule="evenodd" d="M34.796 45.8142V51.1194C35.679 51.5835 36.7581 51.926 37.9571 52.158C39.1562 52.3901 40.4642 52.5006 41.7723 52.5006C43.0803 52.5006 44.2793 52.379 45.4784 52.1249C46.6774 51.8708 47.6584 51.4509 48.5305 50.9095C49.4134 50.3239 50.1655 49.5836 50.6015 48.5892C51.0376 47.5948 51.3755 46.4898 51.3755 45.0535C51.3755 44.048 51.2229 43.1751 50.9286 42.4017C50.6342 41.6282 50.2091 40.9653 49.6205 40.4128C49.0646 39.8272 48.4215 39.3079 47.6584 38.866C46.8954 38.424 46.0234 37.9599 45.0424 37.5401C44.3229 37.2417 43.7343 36.9545 43.0803 36.6672C42.5135 36.3799 42.023 36.0926 41.6633 35.8054C41.2599 35.507 40.9547 35.1977 40.7367 34.8772C40.5187 34.5458 40.4097 34.1811 40.4097 33.7723C40.4097 33.3967 40.5067 33.0541 40.704 32.7448C40.9013 32.4354 41.1727 32.1813 41.5216 31.9603C41.8704 31.7393 42.3064 31.5736 42.8296 31.452C43.3419 31.3305 43.9087 31.2752 44.5736 31.2752C45.0315 31.2752 45.5111 31.3095 45.9907 31.3791C46.4921 31.4487 47.0044 31.5559 47.5167 31.6995C48.0291 31.8432 48.5305 32.0199 49.0428 32.2409C49.5224 32.4619 49.9693 32.716 50.3508 33.0033V27.8102C49.5224 27.4898 48.6068 27.2467 47.6257 27.092C46.6447 26.9373 45.5547 26.86 44.2466 26.86C42.9386 26.86 41.7396 27.0036 40.5405 27.2799C39.3415 27.5561 38.3604 27.9981 37.4884 28.6058C36.6055 29.2024 35.9624 29.9317 35.4174 30.9261C34.905 31.8542 34.6543 32.9149 34.6543 34.2408C34.6543 35.8982 35.123 37.3346 36.0714 38.4395C37.0088 39.6549 38.4695 40.5388 40.3225 41.4227C41.0746 41.7321 41.7396 42.0415 42.3936 42.3398C43.0476 42.6381 43.5926 42.9475 44.0286 43.2679C44.4973 43.5884 44.868 43.9419 45.1187 44.3176C45.3912 44.6933 45.5329 45.1352 45.5329 45.6435C45.5329 45.9971 45.4479 46.3285 45.2822 46.6379C45.1165 46.9473 44.8571 47.2125 44.5082 47.4334C44.1594 47.6544 43.7343 47.8312 43.2002 47.9638C42.6879 48.0853 42.1102 48.1516 41.3471 48.1516C40.1481 48.1516 38.9491 47.9417 37.859 47.5218C36.7437 47.1313 35.7227 46.5591 34.796 45.8142ZM25.6397 32.0045H32.616V27.4743H13.1043V32.0045H20.0806V52.2243H25.6397V32.0045Z" fill="white"/>
</g>
</g>
</g>
<defs>
<filter id="filter0_i_102_35" x="0.241928" y="0.624992" width="59.8098" height="60.5714" filterUnits="userSpaceOnUse" color-interpolation-filters="sRGB">
<feFlood flood-opacity="0" result="BackgroundImageFix"/>
<feBlend mode="normal" in="SourceGraphic" in2="BackgroundImageFix" result="shape"/>
<feColorMatrix in="SourceAlpha" type="matrix" values="0 0 0 0 0 0 0 0 0 0 0 0 0 0 0 0 0 0 127 0" result="hardAlpha"/>
<feOffset dx="4" dy="4"/>
<feGaussianBlur stdDeviation="2"/>
<feComposite in2="hardAlpha" operator="arithmetic" k2="-1" k3="1"/>
<feColorMatrix type="matrix" values="0 0 0 0 0 0 0 0 0 0 0 0 0 0 0 0 0 0 0.25 0"/>
<feBlend mode="normal" in2="shape" result="effect1_innerShadow_102_35"/>
</filter>
<filter id="filter1_d_102_35" x="11.1043" y="25.86" width="44.2711" height="31.6406" filterUnits="userSpaceOnUse" color-interpolation-filters="sRGB">
<feFlood flood-opacity="0" result="BackgroundImageFix"/>
<feColorMatrix in="SourceAlpha" type="matrix" values="0 0 0 0 0 0 0 0 0 0 0 0 0 0 0 0 0 0 127 0" result="hardAlpha"/>
<feOffset dx="1" dy="2"/>
<feGaussianBlur stdDeviation="1.5"/>
<feComposite in2="hardAlpha" operator="out"/>
<feColorMatrix type="matrix" values="0 0 0 0 0 0 0 0 0 0 0 0 0 0 0 0 0 0 0.4 0"/>
<feBlend mode="normal" in2="BackgroundImageFix" result="effect1_dropShadow_102_35"/>
<feBlend mode="normal" in="SourceGraphic" in2="effect1_dropShadow_102_35" result="shape"/>
</filter>
<clipPath id="clip0_102_35">
<rect x="0.241928" y="0.624992" width="55.8098" height="56.5714" rx="3" fill="white"/>
</clipPath>
</defs>
</svg>
